{
  "accessors": [
    {
      "bufferView": 2,
      "componentType": 5126,
      "count": 3132,
      "max": [
        1.0006099939346313,
        1.1676700115203857,
        1
      ],
      "min": [
        -1,
        -1.1669900417327881,
        -1
      ],
      "type": "VEC3"
    },
    {
      "bufferView": 2,
      "byteOffset": 37584,
      "componentType": 5126,
      "count": 3132,
      "max": [
        1,
        1,
        1
      ],
      "min": [
        -1,
        -1,
        -1
      ],
      "type": "VEC3"
    },
    {
      "bufferView": 0,
      "componentType": 5125,
      "count": 8316,
      "max": [
        3131
      ],
      "min": [
        0
      ],
      "type": "SCALAR"
    },
    {
      "bufferView": 2,
      "byteOffset": 75168,
      "componentType": 5126,
      "count": 64,
      "max": [
        0.81840002536773682,
        1.149340033531189,
        0.043969999998807907
      ],
      "min": [
        0.76516002416610718,
        -1.1486599445343018,
        -0.043969999998807907
      ],
      "type": "VEC3"
    },
    {
      "bufferView": 2,
      "byteOffset": 75936,
      "componentType": 5126,
      "count": 64,
      "max": [
        -0,
        1,
        -0
      ],
      "min": [
        -0,
        -1,
        -0
      ],
      "type": "VEC3"
    },
    {
      "bufferView": 0,
      "byteOffset": 33264,
      "componentType": 5125,
      "count": 180,
      "max": [
        63
      ],
      "min": [
        0
      ],
      "type": "SCALAR"
    },
    {
      "bufferView": 2,
      "byteOffset": 76704,
      "componentType": 5126,
      "count": 1600,
      "max": [
        0.84381997585296631,
        0.83736002445220947,
        0.83736002445220947
      ],
      "min": [
        0.82894998788833618,
        -0.83736002445220947,
        -0.83736002445220947
      ],
      "type": "VEC3"
    },
    {
      "bufferView": 2,
      "byteOffset": 95904,
      "componentType": 5126,
      "count": 1600,
      "max": [
        0.99999850988388062,
        0.99910122156143188,
        0.99910122156143188
      ],
      "min": [
        -1.9999977666884661e-05,
        -0.99910122156143188,
        -0.99910122156143188
      ],
      "type": "VEC3"
    },
    {
      "bufferView": 3,
      "componentType": 5126,
      "count": 1600,
      "max": [
        0.99970734119415283,
        0.93165910243988037,
        0.77496552467346191,
        1
      ],
      "min": [
        -0.99983561038970947,
        -0.085809573531150818,
        -0.24812482297420502,
        1
      ],
      "type": "VEC4"
    },
    {
      "bufferView": 0,
      "byteOffset": 33984,
      "componentType": 5125,
      "count": 4608,
      "max": [
        1599
      ],
      "min": [
        0
      ],
      "type": "SCALAR"
    },
    {
      "bufferView": 2,
      "byteOffset": 115104,
      "componentType": 5126,
      "count": 1383,
      "max": [
        0.97284001111984253,
        0.83736002445220947,
        0.83736002445220947
      ],
      "min": [
        0.81770998239517212,
        -0.83736002445220947,
        -0.83736002445220947
      ],
      "type": "VEC3"
    },
    {
      "bufferView": 2,
      "byteOffset": 131700,
      "componentType": 5126,
      "count": 1383,
      "max": [
        1,
        0.99910122156143188,
        0.99910122156143188
      ],
      "min": [
        -3.0000002880115062e-05,
        -0.99910122156143188,
        -0.99910122156143188
      ],
      "type": "VEC3"
    },
    {
      "bufferView": 3,
      "byteOffset": 25600,
      "componentType": 5126,
      "count": 1383,
      "max": [
        0.99983060359954834,
        0.92825299501419067,
        0.77397507429122925,
        1
      ],
      "min": [
        -0.99969911575317383,
        -0.085157133638858795,
        -0.24727892875671387,
        1
      ],
      "type": "VEC4"
    },
    {
      "bufferView": 1,
      "componentType": 5126,
      "count": 1383,
      "max": [
        0.98864001035690308,
        0.98864001035690308
      ],
      "min": [
        0.011359999887645245,
        0.011359999887645245
      ],
      "type": "VEC2"
    },
    {
      "bufferView": 0,
      "byteOffset": 52416,
      "componentType": 5125,
      "count": 4608,
      "max": [
        1382
      ],
      "min": [
        0
      ],
      "type": "SCALAR"
    },
    {
      "bufferView": 2,
      "byteOffset": 148296,
      "componentType": 5126,
      "count": 2376,
      "max": [
        0.16220000386238098,
        1.3065500259399414,
        2.3281500339508057
      ],
      "min": [
        -0.1534699946641922,
        -1.3065500259399414,
        -0.47694000601768494
      ],
      "type": "VEC3"
    },
    {
      "bufferView": 2,
      "byteOffset": 176808,
      "componentType": 5126,
      "count": 2376,
      "max": [
        1,
        1,
        1
      ],
      "min": [
        -1,
        -1,
        -1
      ],
      "type": "VEC3"
    },
    {
      "bufferView": 0,
      "byteOffset": 70848,
      "componentType": 5125,
      "count": 6078,
      "max": [
        2375
      ],
      "min": [
        0
      ],
      "type": "SCALAR"
    },
    {
      "bufferView": 2,
      "byteOffset": 205320,
      "componentType": 5126,
      "count": 8012,
      "max": [
        0.32993999123573303,
        1.2580100297927856,
        3.7902600765228271
      ],
      "min": [
        -0.25407001376152039,
        -1.2580000162124634,
        -0.11642000079154968
      ],
      "type": "VEC3"
    },
    {
      "bufferView": 2,
      "byteOffset": 301464,
      "componentType": 5126,
      "count": 8012,
      "max": [
        1,
        1,
        1
      ],
      "min": [
        -1,
        -1,
        -1
      ],
      "type": "VEC3"
    },
    {
      "bufferView": 0,
      "byteOffset": 95160,
      "componentType": 5125,
      "count": 14802,
      "max": [
        8011
      ],
      "min": [
        0
      ],
      "type": "SCALAR"
    }
  ],
  "asset": {
    "extras": {
      "author": "Mike Rowley (https://sketchfab.com/scrumpy26)",
      "license": "CC-BY-NC-4.0 (http://creativecommons.org/licenses/by-nc/4.0/)",
      "source": "https://sketchfab.com/models/3554154c724c4cf1b8db4ff26f65b54c",
      "title": "Stage Light - Fresnel"
    },
    "generator": "Sketchfab-3.20.7",
    "version": "2.0"
  },
  "bufferViews": [
    {
      "buffer": 0,
      "byteLength": 154368,
      "byteOffset": 0,
      "name": "floatBufferViews",
      "target": 34963
    },
    {
      "buffer": 0,
      "byteLength": 11064,
      "byteOffset": 154368,
      "byteStride": 8,
      "name": "floatBufferViews",
      "target": 34962
    },
    {
      "buffer": 0,
      "byteLength": 397608,
      "byteOffset": 165432,
      "byteStride": 12,
      "name": "floatBufferViews",
      "target": 34962
    },
    {
      "buffer": 0,
      "byteLength": 47728,
      "byteOffset": 563040,
      "byteStride": 16,
      "name": "floatBufferViews",
      "target": 34962
    }
  ],
  "buffers": [
    {
      "byteLength": 610768,
      "uri": "src/components/objects/Spotlight/scene.bin"
    }
  ],
  "images": [
    {
      "uri": "src/components/textures/Spotlight/Material.003_baseColor.png"
    }
  ],
  "materials": [
    {
      "doubleSided": true,
      "emissiveFactor": [
        0,
        0,
        0
      ],
      "name": "Material",
      "pbrMetallicRoughness": {
        "baseColorFactor": [
          0.0003424751,
          0.000337929,
          0.000337929,
          1
        ],
        "metallicFactor": 0.059999999999999998,
        "roughnessFactor": 0.70999999999999996
      }
    },
    {
      "doubleSided": true,
      "name": "Material.001",
      "pbrMetallicRoughness": {
        "baseColorFactor": [
          0.27677709071899997,
          0.25772409162499998,
          0.25772409162499998,
          1
        ],
        "metallicFactor": 0.96999999999999997,
        "roughnessFactor": 0.050000000000000003
      }
    },
    {
      "alphaMode": "BLEND",
      "doubleSided": true,
      "emissiveFactor": [
        0,
        0,
        0
      ],
      "name": "Material.003",
      "pbrMetallicRoughness": {
        "baseColorFactor": [
          0.98996368810000002,
          0.97015549450000005,
          0.97015549450000005,
          1
        ],
        "baseColorTexture": {
          "index": 0,
          "texCoord": 0
        },
        "metallicFactor": 0.63,
        "roughnessFactor": 0.54000000000000004
      }
    }
  ],
  "meshes": [
    {
      "name": "Cube_0",
      "primitives": [
        {
          "attributes": {
            "NORMAL": 1,
            "POSITION": 0
          },
          "indices": 2,
          "material": 0,
          "mode": 4
        }
      ]
    },
    {
      "name": "Cube_1",
      "primitives": [
        {
          "attributes": {
            "NORMAL": 4,
            "POSITION": 3
          },
          "indices": 5,
          "material": 1,
          "mode": 4
        }
      ]
    },
    {
      "name": "lens_0",
      "primitives": [
        {
          "attributes": {
            "NORMAL": 7,
            "POSITION": 6,
            "TANGENT": 8
          },
          "indices": 9,
          "material": 1,
          "mode": 4
        }
      ]
    },
    {
      "name": "lens_1",
      "primitives": [
        {
          "attributes": {
            "NORMAL": 11,
            "POSITION": 10,
            "TANGENT": 12,
            "TEXCOORD_0": 13
          },
          "indices": 14,
          "material": 2,
          "mode": 4
        }
      ]
    },
    {
      "name": "hanger_0",
      "primitives": [
        {
          "attributes": {
            "NORMAL": 16,
            "POSITION": 15
          },
          "indices": 17,
          "material": 0,
          "mode": 4
        }
      ]
    },
    {
      "name": "hanger_1",
      "primitives": [
        {
          "attributes": {
            "NORMAL": 19,
            "POSITION": 18
          },
          "indices": 20,
          "material": 1,
          "mode": 4
        }
      ]
    }
  ],
  "nodes": [
    {
      "children": [
        1
      ],
      "name": "RootNode (gltf orientation matrix)",
      "rotation": [
        -0.70710678118654746,
        -0,
        -0,
        0.70710678118654757
      ]
    },
    {
      "children": [
        2
      ],
      "name": "RootNode (model correction matrix)"
    },
    {
      "children": [
        3,
        5,
        8,
        11,
        13
      ],
      "name": "Root"
    },
    {
      "children": [
        4
      ],
      "matrix": [
        0.19368000000000002,
        0.14510000000000001,
        0.97026999999999997,
        0,
        -0.95872000000000013,
        -0.18187,
        0.21858000000000002,
        0,
        0.20818,
        -0.97255999999999987,
        0.10389000000000001,
        0,
        5.6005499999999993,
        -6.4495600000000008,
        4.6049299999999986,
        1
      ],
      "name": "Lamp"
    },
    {
      "name": "Lamp"
    },
    {
      "children": [
        6,
        7
      ],
      "matrix": [
        1.4836899999999997,
        0,
        -0.72609000000000012,
        0,
        0,
        1,
        0,
        0,
        0.43957000000000007,
        0,
        0.89821000000000006,
        0,
        -0.65593000000000012,
        0,
        1.0938099999999999,
        1
      ],
      "name": "Cube"
    },
    {
      "mesh": 0,
      "name": "Cube_0"
    },
    {
      "mesh": 1,
      "name": "Cube_1"
    },
    {
      "children": [
        9,
        10
      ],
      "matrix": [
        1.4836899999999997,
        0,
        -0.72609000000000012,
        0,
        0,
        1,
        0,
        0,
        0.43957000000000007,
        0,
        0.89821000000000006,
        0,
        -0.65593000000000012,
        0,
        1.0938099999999999,
        1
      ],
      "name": "lens"
    },
    {
      "mesh": 2,
      "name": "lens_0"
    },
    {
      "mesh": 3,
      "name": "lens_1"
    },
    {
      "children": [
        12
      ],
      "matrix": [
        0.89821000000000006,
        0,
        -0.43957000000000007,
        0,
        0,
        1,
        0,
        0,
        0.43957000000000007,
        0,
        0.89821000000000006,
        0,
        0.24704000000000004,
        0,
        0.65192000000000017,
        1
      ],
      "name": "Point"
    },
    {
      "name": "Point"
    },
    {
      "children": [
        14,
        15
      ],
      "matrix": [
        1.6442800000000002,
        0,
        -0.15783000000000003,
        0,
        0,
        1,
        0,
        0,
        0.095550000000000024,
        0,
        0.99541999999999997,
        0,
        -0.74571000000000009,
        -0.020730000000000002,
        1.72943,
        1
      ],
      "name": "hanger"
    },
    {
      "mesh": 4,
      "name": "hanger_0"
    },
    {
      "mesh": 5,
      "name": "hanger_1"
    }
  ],
  "samplers": [
    {
      "magFilter": 9729,
      "minFilter": 9987,
      "wrapS": 10497,
      "wrapT": 10497
    }
  ],
  "scene": 0,
  "scenes": [
    {
      "name": "OSG_Scene",
      "nodes": [
        0
      ]
    }
  ],
  "textures": [
    {
      "sampler": 0,
      "source": 0
    }
  ]
}

